<?xml version="1.0" encoding="utf-8"?>
<!-- Svg Vector Icons : http://www.onlinewebfonts.com/icon -->
<!DOCTYPE svg PUBLIC "-//W3C//DTD SVG 1.1//EN" "http://www.w3.org/Graphics/SVG/1.1/DTD/svg11.dtd">
<svg version="1.1" xmlns="http://www.w3.org/2000/svg" xmlns:xlink="http://www.w3.org/1999/xlink" x="0px" y="0px" viewBox="0 0 1000 1000" enable-background="new 0 0 1000 1000" xml:space="preserve">
<metadata> Svg Vector Icons : http://www.onlinewebfonts.com/icon </metadata>
<g><g><g><path d="M332.3,764.7l-96.4-37.2c12.9,51.8,59.6,90.1,115.4,90.1c65.7,0,119-53.3,119-119c0-65.6-53.3-119-119-119c-23.7,0-45.7,7-64.2,18.9l95.2,36.7c35.7,13.9,53.6,54,39.8,89.7C408.3,760.8,368.2,778.7,332.3,764.7z"/><path d="M699.6,486.7c81.4,0,147.5-66.1,147.5-147.5c0-81.4-66.1-147.5-147.5-147.5c-81.3,0-147.5,66.1-147.5,147.5C552.1,420.5,618.4,486.7,699.6,486.7z M699.6,235.3c57.4,0,104,46.6,104,103.9c0,57.3-46.6,103.9-104,103.9c-57.3,0-103.9-46.6-103.9-103.9C595.7,281.9,642.3,235.3,699.6,235.3z"/><path d="M861.5,10.1H138.5C67.5,10.1,10,67.6,10,138.5v352.8l186.9,72.2c36.2-41.9,89.2-68.7,148.7-69.7L457.9,344c0-132.8,107.7-240.5,240.5-240.5c132.8,0,240.5,107.6,240.5,240.5c0,72.9-32.5,138.2-83.8,182.3l0,0l0,0c-42.2,36.2-96.9,58.1-156.7,58.1c-6.3,0-12.5-0.3-18.7-0.8L549.2,682c0.3,4.1,0.5,8.3,0.5,12.5c0,110.9-89.9,200.9-200.8,200.9c-110.9,0-200.8-90-200.8-200.9c0-0.3,0-0.7,0-1.1L10,640.1v221.4c0,70.9,57.5,128.5,128.5,128.5h723.1c70.9,0,128.5-57.5,128.5-128.5V138.6C990,67.7,932.5,10.1,861.5,10.1z"/></g></g><g></g><g></g><g></g><g></g><g></g><g></g><g></g><g></g><g></g><g></g><g></g><g></g><g></g><g></g><g></g></g>
</svg>